<svg id="Layer_1" data-name="Layer 1" xmlns="http://www.w3.org/2000/svg" viewBox="0 0 507.46 166.23"><defs><style>.cls-1{fill:none;}.cls-2{fill:#7673ac;}</style></defs><title>Untitled-2</title><path class="cls-1" d="M110.12,357.78q0,9.8,8.11,9.79t8.11-9.79V346.47L110.12,351Z" transform="translate(-46.27 -216.88)"/><path class="cls-1" d="M300,232.76q-3.72,0-5.4,2a23.36,23.36,0,0,0-3.38,6.42V295l16.55-4.63V241.55Q307.76,232.76,300,232.76Z" transform="translate(-46.27 -216.88)"/><polygon class="cls-1" points="310.83 131.43 312.18 131.43 317.11 63.4 306.11 66.47 310.83 131.43"/><polygon class="cls-1" points="425.02 60.14 426.38 60.14 430.77 31.67 420.63 34.5 425.02 60.14"/><path class="cls-1" d="M230.4,357.44q0,9.46,8.11,9.46t8.1-9.46V312.89l-16.21,4.53Z" transform="translate(-46.27 -216.88)"/><path class="cls-1" d="M170.6,357.44q0,9.46,8.11,9.46t8.11-9.46V329.58l-16.22,4.53Z" transform="translate(-46.27 -216.88)"/><path class="cls-1" d="M414.19,233.1q-8.1,0-8.1,9.46v20.36l16.21-4.53V242.56Q422.3,233.11,414.19,233.1Z" transform="translate(-46.27 -216.88)"/><path class="cls-1" d="M519.94,357.44q0,9.46,8.11,9.46t8.11-9.46V242.9c0-5.25-1.78-8.36-5.27-9.39l-9.27,2.59a11.94,11.94,0,0,0-1.68,6.8Z" transform="translate(-46.27 -216.88)"/><polygon class="cls-1" points="359.82 73.99 376.04 73.99 376.04 46.95 359.82 51.48 359.82 73.99"/><path class="cls-1" d="M126.34,242.56q0-9.45-8.11-9.46t-8.11,9.46v48.32h16.22Z" transform="translate(-46.27 -216.88)"/><path class="cls-1" d="M238.51,233.1q-8.12,0-8.11,9.8V312l16.21-4.53V242.9Q246.61,233.11,238.51,233.1Z" transform="translate(-46.27 -216.88)"/><path d="M64.18,250c.67-6.09,2.19-10.36,4.56-12.84s5.79-3.72,10.3-3.72a13.82,13.82,0,0,1,6.76,1.35V218.24a16.64,16.64,0,0,0-6.08-1.36,12.33,12.33,0,0,0-9.13,3.38,27.14,27.14,0,0,0-5.74,9.46H63.5l-.34-11.82H46.27V363.39l17.91-5Z" transform="translate(-46.27 -216.88)"/><polygon points="0 165.22 17.91 165.22 17.91 146.94 0 151.94 0 165.22"/><polygon points="97.98 109.13 80.07 109.13 80.07 124.15 97.98 119.15 97.98 109.13"/><path d="M126.34,357.78q0,9.8-8.11,9.79t-8.11-9.79V351l-17.57,4.9v1.54q0,25.68,25.68,25.68,26,0,26-25.68v-16l-17.91,5Z" transform="translate(-46.27 -216.88)"/><path d="M110.12,303.72h34.13V242.9q0-26-26-26-25.68,0-25.68,26V350.46l17.57-4.9Zm0-61.16q0-9.45,8.11-9.46t8.11,9.46v48.32H110.12Z" transform="translate(-46.27 -216.88)"/><path d="M170.6,242.9q0-9.79,8.11-9.8t8.11,9.8v34.46h16.89V242.9q0-12.84-5.91-19.43t-19.09-6.59q-25.68,0-25.68,26v90.68l17.57-4.91Z" transform="translate(-46.27 -216.88)"/><path d="M186.82,357.44q0,9.46-8.11,9.46t-8.11-9.46V334.11L153,339v18.42q0,25.68,25.68,25.68,13.17,0,19.09-6.42t5.91-19.26V324.87l-16.89,4.71Z" transform="translate(-46.27 -216.88)"/><path class="cls-2" d="M230.4,242.9q0-9.79,8.11-9.8t8.1,9.8v64.55l17.57-4.91V242.9q0-26-25.67-26t-25.68,26v74L230.4,312Z" transform="translate(-46.27 -216.88)"/><path class="cls-2" d="M246.61,357.44q0,9.46-8.1,9.46t-8.11-9.46v-40l-17.57,4.9v35.12q0,25.68,25.68,25.68t25.67-25.68V308l-17.57,4.91Z" transform="translate(-46.27 -216.88)"/><path d="M291.21,241.21a23.36,23.36,0,0,1,3.38-6.42q1.68-2,5.4-2,7.77,0,7.77,8.79v48.82L326,285.28V238.17q0-21.28-16.89-21.29-11.83,0-17.24,11.49h-1.35l-.34-10.47H273.3V300l17.91-5Z" transform="translate(-46.27 -216.88)"/><polygon points="227.03 165.22 244.94 165.22 244.94 83.55 227.03 88.55 227.03 165.22"/><polygon points="261.5 165.22 279.74 165.22 279.74 73.84 261.5 78.93 261.5 165.22"/><polygon points="312.18 131.43 310.83 131.43 306.11 66.47 289.8 71.03 298.32 165.22 324 165.22 333.41 58.85 317.11 63.4 312.18 131.43"/><polygon points="338.53 1.01 321.64 1.01 317.51 57.85 333.91 53.27 338.53 1.01"/><polygon points="301.37 1.01 283.46 1.01 289.32 65.72 305.73 61.14 301.37 1.01"/><path d="M406.09,242.56q0-9.45,8.1-9.46t8.11,9.46v15.83l17.91-5V242.9q0-26-26-26-25.68,0-25.67,26v24.93l17.57-4.91Z" transform="translate(-46.27 -216.88)"/><path d="M422.3,290.88H406.09V268.36l-17.57,4.91v84.17q0,25.68,25.67,25.68,26,0,26-25.68V326H422.3v31.76q0,9.8-8.11,9.79t-8.1-9.79V303.72h34.12V258.83l-17.91,5Z" transform="translate(-46.27 -216.88)"/><polygon points="453.4 1.01 435.5 1.01 431.64 25.98 449.44 21.01 453.4 1.01"/><polygon points="414.89 1.01 396.64 1.01 402.99 33.98 419.74 29.31 414.89 1.01"/><polygon points="426.38 60.14 425.02 60.14 420.63 34.5 403.98 39.15 412.18 81.77 395.97 165.22 414.21 165.22 424.01 102.71 425.36 102.71 435.5 165.22 454.08 165.22 437.86 79.4 448.3 26.77 430.77 31.67 426.38 60.14"/><path d="M536.16,242.9V357.44q0,9.46-8.11,9.46t-8.11-9.46V242.9a11.94,11.94,0,0,1,1.68-6.8l-19.2,5.36c0,.48-.05.95-.05,1.44V357.44q0,25.68,25.68,25.68t25.68-25.68V242.9c0-6-1.05-11-3.11-14.89l-19.73,5.5C534.38,234.54,536.16,237.65,536.16,242.9Z" transform="translate(-46.27 -216.88)"/><path d="M528.05,216.88q-21.93,0-25.1,19l44.43-12.41Q541,216.89,528.05,216.88Z" transform="translate(-46.27 -216.88)"/></svg>